<svg width="62" height="69" viewBox="0 0 62 69" fill="none" xmlns="http://www.w3.org/2000/svg">
<mask id="mask0_521_247" style="mask-type:alpha" maskUnits="userSpaceOnUse" x="0" y="0" width="62" height="69">
<path d="M49.7034 43.367C49.7034 57.0922 38.577 68.2187 24.8517 68.2187C11.1265 68.2187 0 57.0922 0 43.367C0 29.6418 43.6851 1.08231e-06 57.4103 1.08231e-06C71.1355 1.08231e-06 49.7034 29.6418 49.7034 43.367Z" fill="#FFCB3C"/>
</mask>
<g mask="url(#mask0_521_247)">
<path fill-rule="evenodd" clip-rule="evenodd" d="M21.8911 40.0399C20.3549 39.3954 18.6193 39.267 16.7062 39.8269C10.1735 41.7386 7.49841 46.8293 7.14064 52.8936C6.63949 61.4173 10.8918 71.91 14.7002 77.1236C15.1454 77.7326 16.0002 77.865 16.6092 77.4212C17.2169 76.9761 17.3507 76.1212 16.9055 75.5122C13.3743 70.6782 9.40195 60.9584 9.8676 53.0548C10.1544 48.1662 12.2081 43.989 17.4736 42.4473C18.6125 42.1142 19.6489 42.1606 20.5815 42.4883C20.2784 43.096 19.9889 43.705 19.7144 44.314C18.6179 46.7528 16.9793 53.5245 17.591 58.5032C18.0758 62.4428 19.937 65.268 23.7768 65.1642C25.9753 65.1055 27.5976 63.7769 28.5713 61.5989C29.7716 58.9129 29.9354 54.804 29.0915 50.8644C28.391 47.5885 27.0009 44.4451 25.0509 42.3313C24.7778 42.0349 24.4938 41.7578 24.2002 41.501C30.6018 30.1521 42.1556 19.6212 54.0179 15.1354C54.7225 14.8691 55.0775 14.0812 54.8112 13.3752C54.5449 12.6706 53.7557 12.3156 53.0511 12.5819C40.678 17.2602 28.6177 28.2103 21.8911 40.0399ZM22.8757 44.0095C22.6435 44.4833 22.4195 44.9585 22.2065 45.4337C21.2219 47.6227 19.7527 53.7006 20.3016 58.17C20.5925 60.5351 21.3995 62.496 23.7045 62.4346C24.8352 62.4045 25.578 61.6043 26.0778 60.4846C26.7414 59.0002 26.9777 56.9875 26.8726 54.845C26.7073 51.5213 25.7037 47.8835 23.9367 45.3108C23.6103 44.8356 23.2566 44.3973 22.8757 44.0095Z" fill="black"/>
<path fill-rule="evenodd" clip-rule="evenodd" d="M44.8743 32.2151C45.9394 26.0033 50.0128 19.3941 54.3893 14.8141C54.9095 14.2693 54.8904 13.4049 54.3456 12.8833C53.8008 12.363 52.935 12.3821 52.4147 12.927C47.6859 17.877 43.3326 25.0419 42.1828 31.7535C42.0558 32.4964 42.5556 33.2023 43.2985 33.3293C44.0413 33.4563 44.7473 32.9579 44.8743 32.2151Z" fill="black"/>
<path fill-rule="evenodd" clip-rule="evenodd" d="M52.5322 12.6661C48.0328 15.2347 41.1314 15.5706 36.1008 14.2679C35.3702 14.0795 34.6247 14.5192 34.4362 15.2484C34.2478 15.9776 34.6861 16.7231 35.4167 16.9129C41.0727 18.3754 48.8275 17.9262 53.8868 15.0381C54.5409 14.6653 54.769 13.8296 54.3948 13.1755C54.0206 12.5214 53.1863 12.2934 52.5322 12.6661Z" fill="black"/>
</g>
</svg>
