<svg xmlns="http://www.w3.org/2000/svg" width="72" height="65" viewBox="0 0 72 65" fill="none">
  <path fill-rule="evenodd" clip-rule="evenodd" d="M59.7696 40.1413C59.8926 39.8897 60.0237 39.6509 60.1548 39.4309C60.5526 38.7714 61.0758 39.0563 61.1161 39.0792C61.2003 39.1276 61.5656 39.3616 61.3725 39.9388C61.3613 39.9734 61.2521 40.2087 61.2087 40.2987C61.1155 40.4903 61.0202 40.6766 60.8992 40.8499C60.7498 41.174 60.6187 41.5196 60.5368 41.8671C60.414 42.379 60.3836 42.8961 60.6127 43.3038C61.0209 44.0349 61.8474 44.4593 62.477 44.9284C62.74 45.1242 62.8037 45.5272 62.6275 45.8774C62.4493 46.2269 62.0851 46.4192 61.7677 46.3292C60.8107 46.0585 59.3252 46.4618 58.2951 46.876C57.9785 47.0032 57.4668 47.4368 57.0363 47.659C56.69 47.8365 56.3726 47.9094 56.1281 47.8746C56.0328 47.8608 55.5345 47.7296 55.6315 47.075C55.6599 46.8919 55.9016 45.9826 55.9336 45.8813C56.1122 45.2984 56.2159 44.7476 56.148 44.1709C56.089 43.6709 55.9509 43.1875 55.6745 42.8118C55.5631 42.6604 55.4367 42.5228 55.3112 42.3836C55.261 42.3464 55.1201 42.2404 55.0777 42.189C54.9908 42.085 54.9466 41.9716 54.9256 41.871C54.8854 41.6803 54.9133 41.4936 54.9996 41.3102C55.0551 41.1885 55.1438 41.0565 55.2969 40.9396C55.4085 40.858 55.6161 40.7565 55.8875 40.7644C56.1713 40.7726 56.7086 40.9245 56.809 40.9428C57.507 41.0709 58.2471 41.0928 58.9764 40.8323C59.34 40.7016 59.5395 40.4568 59.7696 40.1413ZM59.0826 42.3289C59.0047 43.0226 59.088 43.6868 59.4011 44.2455C59.5297 44.4769 59.692 44.6873 59.8736 44.8807C59.2116 45.0162 58.5545 45.2217 58.002 45.4426C57.8227 45.5148 57.5902 45.6626 57.3388 45.827C57.5254 45.1269 57.608 44.4524 57.5253 43.7497C57.4755 43.335 57.3846 42.9314 57.2419 42.5589C57.847 42.5894 58.4685 42.529 59.0826 42.3289Z" fill="black"/>
  <path fill-rule="evenodd" clip-rule="evenodd" d="M36.9563 53.4094C41.3089 55.9192 45.967 58.0943 49.2175 62.185C49.4502 62.4788 49.8873 62.4676 50.1908 62.1648C50.4954 61.8597 50.5521 61.373 50.3194 61.0792C46.978 56.8734 42.2126 54.6044 37.7389 52.0264C37.4214 51.8433 36.9908 52.0054 36.7758 52.3859C36.5596 52.7687 36.6421 53.2251 36.9563 53.4094Z" fill="black"/>
  <path fill-rule="evenodd" clip-rule="evenodd" d="M40.8029 45.4814C42.9868 44.7073 45.0913 44.3782 47.2004 44.79C47.5633 44.8606 47.9555 44.5792 48.0771 44.1626C48.1968 43.745 48.0012 43.3497 47.6363 43.278C45.3051 42.8227 42.9819 43.1714 40.5687 44.0268C40.191 44.1605 39.937 44.5948 40.0015 44.9962C40.066 45.3976 40.4251 45.6151 40.8029 45.4814Z" fill="black"/>
  <path fill-rule="evenodd" clip-rule="evenodd" d="M45.9841 26.7223C47.9997 24.4831 50.3193 23.1312 52.9938 22.6935C53.3761 22.6305 53.689 22.2403 53.6891 21.8213C53.6912 21.4032 53.3807 21.1142 52.9983 21.1774C49.9752 21.6715 47.3539 23.1972 45.0761 25.7277C44.7873 26.05 44.7547 26.5338 45.0054 26.8084C45.256 27.0829 45.6952 27.0446 45.9841 26.7223Z" fill="black"/>
  <path fill-rule="evenodd" clip-rule="evenodd" d="M25.8804 11.2704C25.2346 11.5945 24.6069 11.9782 24.0069 12.422C23.659 12.677 22.9414 13.3208 22.6784 13.9254C22.4819 14.3786 22.463 14.8232 22.6929 15.2153C23.0595 15.8422 23.5186 16.0369 23.963 16.0167C24.3892 15.9979 24.8478 15.7606 25.2802 15.3394C26.0514 14.587 26.7555 13.2007 27.0557 12.299C27.7003 12.0329 28.3586 11.8298 29.0189 11.6881C34.0953 10.6018 38.6068 14.4591 40.1519 21.0039C40.6938 23.297 39.5919 26.9109 38.0427 30.6109C35.6141 36.4181 31.9874 42.4116 30.9726 44.1932C30.7071 44.6628 30.5982 44.9675 30.5874 45.0341C30.529 45.403 30.6793 45.5892 30.7971 45.6917C30.9629 45.8352 31.1364 45.8715 31.3002 45.8605C31.5186 45.8458 31.7515 45.7391 31.9646 45.4923C32.0728 45.3659 32.1896 45.1723 32.3001 44.9578C32.3639 44.8301 32.4125 44.6794 32.4824 44.6009C32.9745 44.0501 33.49 43.5304 34.0018 43.0037C35.7232 41.2316 37.5505 39.6864 39.4582 38.1873C45.5299 33.4244 51.6974 28.2557 58.7073 25.9109C59.0862 25.7845 59.3477 25.3548 59.2896 24.9509C59.2314 24.5472 58.8764 24.322 58.4976 24.4484C51.32 26.8485 44.9898 32.1052 38.776 36.9831C37.3312 38.1159 35.9339 39.277 34.5912 40.5367C36.5069 37.0918 38.9697 32.3517 40.4171 28.1243C41.4513 25.1108 41.9565 22.3441 41.4996 20.4143C39.7756 13.1127 34.6224 8.97169 28.9594 10.1838C28.4017 10.3027 27.8473 10.4618 27.2972 10.6594C27.5628 5.2246 24.168 1.18316 19.2195 1.21769C18.8417 1.22112 18.4879 1.56621 18.4329 1.9895C18.3778 2.41278 18.6401 2.75406 19.0179 2.75062C23.3801 2.72056 26.3192 6.40264 25.8804 11.2704ZM25.179 13.2891C25.0007 13.4062 24.8243 13.529 24.6499 13.6573C24.5266 13.7467 24.3259 13.9099 24.1446 14.1022C24.0831 14.1698 24.0014 14.2843 23.9532 14.3552C24.003 14.4349 24.0497 14.4877 24.1189 14.485C24.2321 14.4795 24.3382 14.3709 24.4541 14.258C24.7124 14.0065 24.964 13.6557 25.179 13.2891Z" fill="black"/>
</svg>